<svg xmlns="http://www.w3.org/2000/svg" viewBox="0 0 500.37 500.37"><path d="M217.13 200.71C189.77 219 182.42 256 200.71 283.36c18.29 27.36 55.29 34.71 82.65 16.42 27.36-18.29 34.71-55.29 16.42-82.65-18.29-27.36-55.29-34.71-82.65-16.42Zm158.93-76.4c-5.81-5.81-12.84-10.39-20.55-13.4-20.22-7.93-64.33-7.59-92.81-7.26-4.58 0-8.82.11-12.51.11s-8.04 0-12.73-.11c-28.48-.34-72.38-.78-92.59 7.26-7.71 3.02-14.63 7.59-20.55 13.4-5.92 5.81-10.39 12.84-13.4 20.55-7.93 20.22-7.48 64.45-7.26 92.93 0 4.58.11 8.82.11 12.4s0 7.82-.11 12.4c-.22 28.48-.67 72.71 7.26 92.93 3.02 7.71 7.59 14.63 13.4 20.55 5.81 5.92 12.84 10.39 20.55 13.4 20.22 7.93 64.33 7.59 92.81 7.26 4.58 0 8.82-.11 12.51-.11s8.04 0 12.73.11c28.48.34 72.38.78 92.59-7.26 7.71-3.02 14.63-7.59 20.55-13.4 5.92-5.81 10.39-12.84 13.4-20.55 8.04-20.1 7.59-64.11 7.26-92.7 0-4.69-.11-9.05-.11-12.73s0-7.93.11-12.73c.34-28.48.78-72.49-7.26-92.7-3.02-7.71-7.59-14.63-13.4-20.55v.22Zm-74.94 49.7c42.07 28.13 53.37 85.03 25.24 127.1-28.13 42.07-85.03 53.37-127.1 25.24-42.07-28.1-53.4-84.98-25.3-127.05 28.1-42.07 84.98-53.4 127.05-25.3h.11Zm32.61-1.45c-3.46-2.35-6.25-5.7-7.93-9.61s-2.01-8.15-1.23-12.4 2.9-7.93 5.81-10.95 6.81-5.03 10.95-5.81c4.13-.78 8.49-.45 12.4 1.23s7.26 4.36 9.61 7.82 3.57 7.59 3.57 11.84c0 2.79-.56 5.58-1.56 8.15s-2.68 4.91-4.58 6.92-4.36 3.57-6.92 4.69-5.36 1.68-8.15 1.68c-4.24 0-8.38-1.23-11.84-3.57h-.11ZM500.37 71.48C500.37 32.05 468.31 0 428.89 0H71.48C32.06 0 0 32.06 0 71.48v357.41c0 39.43 32.06 71.48 71.48 71.48h357.41c39.43 0 71.48-32.06 71.48-71.48V71.48ZM398.73 398.73c-20.89 20.89-46.24 27.48-74.83 28.93-29.49 1.68-117.94 1.68-147.43 0-28.59-1.45-53.95-8.04-74.83-28.93-20.89-20.89-27.48-46.24-28.82-74.83-1.68-29.49-1.68-117.94 0-147.43 1.45-28.59 7.93-53.95 28.82-74.83 20.89-20.89 46.35-27.48 74.83-28.82 29.49-1.68 117.94-1.68 147.43 0 28.59 1.45 53.95 7.93 74.83 28.82 20.89 20.89 27.48 46.24 28.82 74.83 1.68 29.37 1.68 117.72 0 147.32-1.45 28.59-7.93 53.95-28.82 74.83v.11Z" style="fill:#ffffff;stroke-width:0"/></svg>