<?xml version="1.0" encoding="UTF-8"?><svg id="_レイヤー_1" xmlns="http://www.w3.org/2000/svg" viewBox="0 0 458.67 344"><defs><style>.cls-1{fill:#fff;stroke-width:0px;}</style></defs><path class="cls-1" d="M43,0C19.26,0,0,19.26,0,43c0,13.53,6.36,26.25,17.2,34.4l194.93,146.2c10.21,7.61,24.19,7.61,34.4,0l194.93-146.2c10.84-8.15,17.2-20.87,17.2-34.4,0-23.74-19.26-43-43-43,0,0-372.67,0-372.67,0ZM0,100.33v186.33c0,31.62,25.71,57.33,57.33,57.33h344c31.62,0,57.33-25.71,57.33-57.33V100.33l-194.93,146.2c-20.42,15.32-48.37,15.32-68.8,0L0,100.33Z"/></svg>