<?xml version="1.0" standalone="no"?>
<!DOCTYPE svg PUBLIC "-//W3C//DTD SVG 20010904//EN"
 "http://www.w3.org/TR/2001/REC-SVG-20010904/DTD/svg10.dtd">
<svg version="1.0" xmlns="http://www.w3.org/2000/svg"
 width="1569.000000pt" height="1569.000000pt" viewBox="0 0 1569.000000 1569.000000"
 preserveAspectRatio="xMidYMid meet">
<metadata>
Created by potrace 1.14, written by Peter Selinger 2001-2017
</metadata>
<g transform="translate(0.000000,1569.000000) scale(0.100000,-0.100000)"
fill="#000000" stroke="none">
<path d="M0 7845 l0 -7845 7845 0 7845 0 0 7845 0 7845 -7845 0 -7845 0 0
-7845z m13418 3818 l3 -83 -5726 0 -5725 0 0 85 0 85 5723 -2 5722 -3 3 -82z
m-1638 -3528 l0 -75 -4905 0 -4905 0 0 75 0 75 4905 0 4905 0 0 -75z m-2060
-3530 l0 -75 -3875 0 -3875 0 0 75 0 75 3875 0 3875 0 0 -75z"/>
</g>
</svg>
